<?xml version="1.0"?>
<svg xmlns="http://www.w3.org/2000/svg" xmlns:xlink="http://www.w3.org/1999/xlink" xmlns:svgjs="http://svgjs.com/svgjs" version="1.1" width="512" height="512" x="0" y="0" viewBox="0 0 511.998 511.998" style="enable-background:new 0 0 512 512" xml:space="preserve" class=""><g>
<circle xmlns="http://www.w3.org/2000/svg" style="" cx="255.999" cy="255.999" r="255.999" fill="#384aeb" data-original="#21d0c3" class=""/>
<path xmlns="http://www.w3.org/2000/svg" style="" d="M131.491,173.627c50.679,0,91.763,41.083,91.763,91.763c0,50.679-41.085,91.763-91.763,91.763  s-91.763-41.083-91.763-91.763S80.81,173.627,131.491,173.627z" fill="#dce3e8" data-original="#dce3e8"/>
<path xmlns="http://www.w3.org/2000/svg" style="" d="M128.966,171.277c49.831,0,90.228,40.395,90.228,90.228s-40.397,90.228-90.228,90.228  c-49.833,0-90.228-40.395-90.228-90.228S79.132,171.277,128.966,171.277z" fill="#eef3f7" data-original="#eef3f7" class=""/>
<path xmlns="http://www.w3.org/2000/svg" style="" d="M128.966,178.52c45.832,0,82.986,37.154,82.986,82.986s-37.154,82.986-82.986,82.986  c-45.834,0-82.986-37.154-82.986-82.986S83.133,178.52,128.966,178.52z" fill="#fefefe" data-original="#fefefe" class=""/>
<path xmlns="http://www.w3.org/2000/svg" style="" d="M119.3,179.539l9.666-8.176v180.272l-9.666-8.187C119.3,343.448,119.3,179.539,119.3,179.539z" fill="#dce3e8" data-original="#dce3e8"/>
<path xmlns="http://www.w3.org/2000/svg" style="" d="M138.634,179.539l-9.666-8.176v180.272l9.666-8.187V179.539z" fill="#eef3f7" data-original="#eef3f7" class=""/>
<path xmlns="http://www.w3.org/2000/svg" style="" d="M208.377,341.01c-16.984,24.048-11.258,57.311,12.793,74.295  c24.048,16.984,57.311,11.258,74.295-12.793c16.984-24.048,11.258-57.311-12.793-74.295  C258.624,311.234,225.362,316.96,208.377,341.01z" fill="#dce3e8" data-original="#dce3e8"/>
<path xmlns="http://www.w3.org/2000/svg" style="" d="M208.109,339.024c-16.699,23.645-11.068,56.354,12.578,73.053s56.354,11.068,73.053-12.576  c16.699-23.647,11.068-56.354-12.578-73.053c-23.647-16.699-56.354-11.068-73.053,12.578V339.024z" fill="#eef3f7" data-original="#eef3f7" class=""/>
<path xmlns="http://www.w3.org/2000/svg" style="" d="M211.546,341.451c-15.359,21.748-10.18,51.83,11.568,67.189s51.83,10.18,67.188-11.568  c15.359-21.748,10.18-51.83-11.568-67.189C256.986,314.521,226.905,319.7,211.546,341.451z" fill="#fefefe" data-original="#fefefe" class=""/>
<path xmlns="http://www.w3.org/2000/svg" style="" d="M215.268,337.207l-7.119,1.847l85.542,60.413l-0.646-7.331L215.268,337.207L215.268,337.207  L215.268,337.207z" fill="#dce3e8" data-original="#dce3e8"/>
<path xmlns="http://www.w3.org/2000/svg" style="" d="M208.787,346.381l-0.64-7.327l85.542,60.413l-7.124,1.843L208.787,346.381z" fill="#eef3f7" data-original="#eef3f7" class=""/>
<path xmlns="http://www.w3.org/2000/svg" style="" d="M341.264,236.238V114.409c0-61.908-93.596-61.91-93.596,0v121.829  C247.668,298.147,341.264,298.146,341.264,236.238z" fill="#ed4c54" data-original="#ed4c54"/>
<path xmlns="http://www.w3.org/2000/svg" style="" d="M317.109,73.203c-27.731-13.853-69.439-0.124-69.439,41.206v121.829  c0,41.33,41.706,55.059,69.439,41.206c9.21-8.277,15.332-20.594,15.332-36.962V110.165C332.442,93.796,326.321,81.48,317.109,73.203  z" fill="#ff5b62" data-original="#ff5b62"/>
<path xmlns="http://www.w3.org/2000/svg" style="" d="M341.264,236.238v-60.916h-93.596v60.916C247.668,298.147,341.264,298.146,341.264,236.238z" fill="#eef3f7" data-original="#eef3f7" class=""/>
<path xmlns="http://www.w3.org/2000/svg" style="" d="M332.442,240.484v-65.159H247.67v60.916c0,41.33,41.706,55.059,69.439,41.206  C326.319,269.169,332.442,256.853,332.442,240.484z" fill="#fefefe" data-original="#fefefe" class=""/>
<path xmlns="http://www.w3.org/2000/svg" style="" d="M259.468,175.325h6.663v-68.228c0-1.832-1.499-3.331-3.331-3.331h-0.002  c-1.832,0-3.331,1.499-3.331,3.331v68.228H259.468z" fill="#ff878e" data-original="#ff878e"/>
<path xmlns="http://www.w3.org/2000/svg" style="" d="M453.122,195.561V317.39c0,61.91-93.594,61.912-93.594,0V195.561  C359.528,133.648,453.122,133.653,453.122,195.561z" fill="#ed4c54" data-original="#ed4c54"/>
<path xmlns="http://www.w3.org/2000/svg" style="" d="M428.967,358.594c-27.733,13.853-69.439,0.126-69.439-41.206v-121.83  c0-41.332,41.706-55.061,69.439-41.206c9.212,8.277,15.332,20.594,15.332,36.962v130.317C444.3,338,438.177,350.319,428.967,358.594  z" fill="#ff5b62" data-original="#ff5b62"/>
<path xmlns="http://www.w3.org/2000/svg" style="" d="M453.122,195.561v60.916h-93.594v-60.916C359.528,133.648,453.122,133.653,453.122,195.561z" fill="#eef3f7" data-original="#eef3f7" class=""/>
<path xmlns="http://www.w3.org/2000/svg" style="" d="M444.3,191.315v65.16h-84.772v-60.916c0-41.332,41.706-55.061,69.439-41.206  C438.179,162.63,444.3,174.946,444.3,191.315z" fill="#fefefe" data-original="#fefefe" class=""/>
<path xmlns="http://www.w3.org/2000/svg" style="" d="M371.324,256.474h6.665v68.228c0,1.832-1.499,3.331-3.331,3.331l0,0  c-1.834,0-3.332-1.499-3.332-3.331v-68.228H371.324z" fill="#ff878e" data-original="#ff878e"/>
<g xmlns="http://www.w3.org/2000/svg">
</g>
<g xmlns="http://www.w3.org/2000/svg">
</g>
<g xmlns="http://www.w3.org/2000/svg">
</g>
<g xmlns="http://www.w3.org/2000/svg">
</g>
<g xmlns="http://www.w3.org/2000/svg">
</g>
<g xmlns="http://www.w3.org/2000/svg">
</g>
<g xmlns="http://www.w3.org/2000/svg">
</g>
<g xmlns="http://www.w3.org/2000/svg">
</g>
<g xmlns="http://www.w3.org/2000/svg">
</g>
<g xmlns="http://www.w3.org/2000/svg">
</g>
<g xmlns="http://www.w3.org/2000/svg">
</g>
<g xmlns="http://www.w3.org/2000/svg">
</g>
<g xmlns="http://www.w3.org/2000/svg">
</g>
<g xmlns="http://www.w3.org/2000/svg">
</g>
<g xmlns="http://www.w3.org/2000/svg">
</g>
</g></svg>
