<svg height="512pt" viewBox="-112 0 512 512" width="512pt" xmlns="http://www.w3.org/2000/svg"><path d="m8 472c0 17.671875 14.328125 32 32 32h208c17.671875 0 32-14.328125 32-32v-64h-272zm240 8c4.417969 0 8-3.582031 8-8 0 4.417969-3.582031 8-8 8zm-104-48c13.253906 0 24 10.746094 24 24s-10.746094 24-24 24-24-10.746094-24-24 10.746094-24 24-24zm-96 48" fill="#57a4ff"/><path d="m248 8h-208c-17.671875 0-32 14.328125-32 32v24h272v-24c0-17.671875-14.328125-32-32-32zm-8 32" fill="#57a4ff"/><path d="m168 456c0 13.253906-10.746094 24-24 24s-24-10.746094-24-24 10.746094-24 24-24 24 10.746094 24 24zm0 0" fill="#57a4ff"/><path d="m80.472656 280h127.054688c2.375.019531 4.742187-.21875 7.066406-.703125 16.582031-3.394531 28.417969-18.085937 28.210938-35.011719-.207032-16.925781-12.398438-31.320312-29.0625-34.308594-5.019532-29.300781-30.738282-50.503906-60.457032-49.847656s-54.480468 22.972656-58.207031 52.464844c-4.578125-2.113281-9.5625-3.207031-14.605469-3.203125-19.492187 0-35.296875 15.804687-35.296875 35.296875s15.804688 35.296875 35.296875 35.296875zm0 0" fill="#57a4ff"/><g fill="#004fac"><path d="m248 0h-208c-22.082031.0273438-39.9726562 17.917969-40 40v432c.0273438 22.082031 17.917969 39.972656 40 40h208c22.082031-.027344 39.972656-17.917969 40-40v-432c-.027344-22.082031-17.917969-39.9726562-40-40zm-232 72h256v328h-256zm24-56h208c13.253906 0 24 10.746094 24 24v16h-256v-16c0-13.253906 10.746094-24 24-24zm208 480h-208c-13.253906 0-24-10.746094-24-24v-56h256v56c0 13.253906-10.746094 24-24 24zm0 0"/><path d="m144 424c-17.671875 0-32 14.328125-32 32s14.328125 32 32 32 32-14.328125 32-32-14.328125-32-32-32zm0 48c-8.835938 0-16-7.164062-16-16s7.164062-16 16-16 16 7.164062 16 16-7.164062 16-16 16zm0 0"/><path d="m220.535156 203.40625c-7.554687-29.996094-34.402344-51.113281-65.335937-51.386719-30.933594-.273437-58.152344 20.363281-66.238281 50.21875-16.164063-3.214843-32.75 3.027344-42.789063 16.097657-10.035156 13.070312-11.78125 30.707031-4.503906 45.492187 7.28125 14.785156 22.324219 24.15625 38.804687 24.171875h31.527344c4.417969 0 8-3.582031 8-8s-3.582031-8-8-8h-31.527344c-9.863281.167969-19.046875-4.996094-24.027344-13.507812-4.980468-8.515626-4.980468-19.054688 0-27.566407 4.980469-8.515625 14.164063-13.679687 24.027344-13.511719 3.882813-.023437 7.726563.792969 11.261719 2.402344 2.324219 1.070313 5.015625.964844 7.25-.28125 2.230469-1.246094 3.730469-3.484375 4.039063-6.023437 3.253906-25.542969 24.710937-44.855469 50.453124-45.414063 25.746094-.558594 48.019532 17.804688 52.378907 43.183594.566406 3.335938 3.171875 5.957031 6.503906 6.542969 12.867187 2.351562 22.257813 13.503906 22.386719 26.582031s-9.039063 24.414062-21.859375 27.019531c-1.761719.363281-3.558594.539063-5.359375.519531h-31.527344c-4.417969 0-8 3.582032-8 8 0 4.417969 3.582031 8 8 8h31.527344c2.902344.019532 5.796875-.269531 8.640625-.855468 19.34375-3.941406 33.574219-20.464844 34.601562-40.179688 1.027344-19.710937-11.40625-37.628906-30.234375-43.558594zm0 0"/><path d="m179 313.753906-27 21.597656v-87.351562c0-4.417969-3.582031-8-8-8s-8 3.582031-8 8v87.351562l-27-21.597656c-3.449219-2.761718-8.488281-2.203125-11.246094 1.246094-2.761718 3.449219-2.203125 8.488281 1.246094 11.246094l40 32c.351562.234375.71875.4375 1.105469.609375.257812.167969.523437.324219.796875.464843.976562.433594 2.03125.664063 3.097656.679688 1.070312-.023438 2.125-.265625 3.105469-.703125.109375-.050781.246093 0 .359375-.089844.347656-.195312.679687-.417969.992187-.664062.1875-.085938.367188-.183594.542969-.296875l40-32c3.449219-2.757813 4.007812-7.796875 1.246094-11.246094-2.757813-3.449219-7.796875-4.007812-11.246094-1.246094zm0 0"/><path d="m48 472h-8c-4.417969 0-8 3.582031-8 8s3.582031 8 8 8h8c4.417969 0 8-3.582031 8-8s-3.582031-8-8-8zm0 0"/><path d="m240 48h8c4.417969 0 8-3.582031 8-8s-3.582031-8-8-8h-8c-4.417969 0-8 3.582031-8 8s3.582031 8 8 8zm0 0"/><path d="m256 440c-4.417969 0-8 3.582031-8 8v24h-24c-4.417969 0-8 3.582031-8 8s3.582031 8 8 8h24c8.835938 0 16-7.164062 16-16v-24c0-4.417969-3.582031-8-8-8zm0 0"/></g></svg>