<?xml version="1.0"?>
<svg xmlns="http://www.w3.org/2000/svg" xmlns:xlink="http://www.w3.org/1999/xlink" xmlns:svgjs="http://svgjs.com/svgjs" version="1.1" width="512" height="512" x="0" y="0" viewBox="0 0 512 512" style="enable-background:new 0 0 512 512" xml:space="preserve" class=""><g>
<circle xmlns="http://www.w3.org/2000/svg" style="" cx="256" cy="256" r="256" fill="#384aeb" data-original="#21d0c3" class=""/>
<path xmlns="http://www.w3.org/2000/svg" style="" d="M264.817,511.82l10.388-220.316c1.626-8.628,10.49-10.369,65.037-23.274s90.634-50.645,90.634-50.645  H81.125c0,0,36.087,37.744,90.634,50.645c54.547,12.905,63.406,14.646,65.037,23.274l10.402,220.316  c2.923,0.106,5.857,0.18,8.808,0.18c2.956,0,5.893-0.074,8.817-0.18H264.817z" fill="#ffffff" data-original="#ffffff"/>
<path xmlns="http://www.w3.org/2000/svg" style="" d="M264.817,511.815L275.204,291.5c1.626-8.628,10.49-10.369,65.037-23.274  c54.547-12.905,90.634-50.645,90.634-50.645h-23.421c-56.589,63.12-133.482,45.92-136.974,70.912l-9.574,223.443  c1.307-0.032,2.61-0.074,3.907-0.12H264.817z" fill="#dce3db" data-original="#dce3db" class=""/>
<path xmlns="http://www.w3.org/2000/svg" style="" d="M295.171,508.748c1.728-0.277,6.531-1.146,9.413-1.751c10.434-22.124-22.641-29.353-38.036-31.925  l-0.527,11.122c11.556,1.691,41.25,4.291,29.144,22.549L295.171,508.748z M277.108,445.734c8.272-1.833,26.258-6.393,31.708-11.847  c3.284-3.289,4.051-2.264,6.864-7.811c5.408-10.66-3.792-21.274-15.639-26.059c-5.727-2.314-17.062-3.515-29.736-4.512  l-0.868,18.406c10.609,0.794,18.276,1.436,18.6,1.981c1.691,8.591-52.234,16.009-58.562,18.087  c-5.616,1.847-14.411,4.347-18.327,7.256c-5.113,3.797-1.728,0.499-6.997,5.806c-1.986,1.991-2.831,6.54-1.815,10  c1.838,6.286,4.864,7.575,7.948,11.015c3.22,3.598,15.685,9.307,20.761,11.413c3.709,1.533,8.919,2.707,14.798,3.723l-0.577-12.184  c-6.194-1.57-11.588-3.57-15.413-6.447c-16.078-12.115,40.862-17.417,47.255-18.83v0.005H277.108z M240.559,371.368  c10.66-3.519,20.577-6.273,21.874-6.688c3.28-1.155,6.434-2.282,9.482-3.39c30.798-11.228,50.492-21.043,75.831-46.026  c19.944-17.787,31.935-40.525,37.347-64.316c-10.563,5.686-22.683,11.012-36.064,14.947c-9.437,19.278-23.403,36.262-39.154,47.462  c-7.602,5.612-25.389,12.66-36.516,17.283c-2.074,0.863-3.916,1.635-5.417,2.305l-17.717,6.859  c-3.331,1.441-7.238,2.762-10.961,4.171c-2.364,0.891-4.656,1.824-6.679,2.84c-3.875,1.949-11.843,4.665-17.177,7.39  c-1.395,0.716-2.401,1.45-4.046,2.111c-3.164,1.28-13.039,7.113-15.219,9.418c-0.652,0.689-0.887,1.086-1.311,1.52  c-5.21,5.39-8.831,11.954-7.644,20.221c1.446,10.013,8.221,15.293,17.773,19.195c5.229,2.139,21.048,3.829,37.5,5.201l-0.877-18.614  c-14.443-1.408-26.391-3.459-28.992-7.625c-1.399-3.667,13.926-9.621,27.957-14.258L240.559,371.368z M388.522,217.586  c-1.201-72.672-57.282-138.554-130.475-89.013c-5.829,4.397-11.903,10.411-16.655,16.471c-4.097,5.224-9.639,15.348-11.46,21.676  l-5.039,17.172c-1.492,4.642,0.236,6.111,2.624,8.208c-1.22,2.222-2.73,2.956-4.35,4.282c-9.455,7.732-24.018,13.408-35.431,4.628  l-12.156-10.535c-4.369-3.229-2.744-2.406-7.57-4.758l2.157,2.143c2.153,1.921,4,3.728,5.468,6.443  c-2.605-1.311-2.526-2.264-4.688-3.478c-5.635-3.164-11.884-6.605-19.062-6.092c7.256,0.652,16.037,6.563,20.558,12.166  c6.115,7.575,8.43,10.896,20.12,13.436c8.147,1.769,20.498-1.594,26.314-6.896c1.742-1.584,1.686-0.684,4.596-3.459  c12.678-12.115,0.388-3.371,16.111-9.437l16.559-8.503c0.73-0.429,1.695-1.007,2.647-1.626c5.944-3.865,9.598-5.454,13.889-11.205  c3.561-4.767,1.266-0.466,4.369-8.402c1.543-3.94,2.148-9.279,4.795-11.764c3.21-3.007,7.256-3.672,11.251-5.76  c6.605-3.455,26.927,1.805,27.279,3.044c0.111,0.383,8.328,4.697,9.524,5.626c3.681,2.037,10.096,7.454,12.738,10.572l2.508,3.164  c12.105,15.293,16.928,33.412,16.429,51.897h26.959L388.522,217.586L388.522,217.586z" fill="#e94848" data-original="#0f7986" class=""/>
<path xmlns="http://www.w3.org/2000/svg" style="" d="M241.331,164.109c0,0-6.521,0.965-6.762,6.277c-0.245,5.312-0.245,6.161-0.245,6.161  s3.261-2.781,4.951-4.951c1.691-2.176,2.051-7.487,2.051-7.487L241.331,164.109L241.331,164.109z" fill="#ffffff" data-original="#ffffff"/>
<g xmlns="http://www.w3.org/2000/svg">
</g>
<g xmlns="http://www.w3.org/2000/svg">
</g>
<g xmlns="http://www.w3.org/2000/svg">
</g>
<g xmlns="http://www.w3.org/2000/svg">
</g>
<g xmlns="http://www.w3.org/2000/svg">
</g>
<g xmlns="http://www.w3.org/2000/svg">
</g>
<g xmlns="http://www.w3.org/2000/svg">
</g>
<g xmlns="http://www.w3.org/2000/svg">
</g>
<g xmlns="http://www.w3.org/2000/svg">
</g>
<g xmlns="http://www.w3.org/2000/svg">
</g>
<g xmlns="http://www.w3.org/2000/svg">
</g>
<g xmlns="http://www.w3.org/2000/svg">
</g>
<g xmlns="http://www.w3.org/2000/svg">
</g>
<g xmlns="http://www.w3.org/2000/svg">
</g>
<g xmlns="http://www.w3.org/2000/svg">
</g>
</g></svg>
