<?xml version="1.0"?>
<svg xmlns="http://www.w3.org/2000/svg" xmlns:xlink="http://www.w3.org/1999/xlink" xmlns:svgjs="http://svgjs.com/svgjs" version="1.1" width="512" height="512" x="0" y="0" viewBox="0 0 512 512" style="enable-background:new 0 0 512 512" xml:space="preserve" class=""><g><path xmlns="http://www.w3.org/2000/svg" d="m512 256c0 141.386719-114.613281 256-256 256s-256-114.613281-256-256 114.613281-256 256-256 256 114.613281 256 256zm0 0" fill="#384aeb" data-original="#80deea" style="" class=""/><path xmlns="http://www.w3.org/2000/svg" d="m0 256c0 141.152344 114.847656 256 256 256s256-114.847656 256-256zm0 0" fill="#384aeb" data-original="#4dd0e1" style="" class=""/><g xmlns="http://www.w3.org/2000/svg" fill="#fff"><path d="m335.183594 184.558594-79.183594-79.183594-79.183594 79.183594 22.625 22.625 40.558594-40.558594v121.136719h32v-121.136719l40.558594 40.558594zm0 0" fill="#ffffff" data-original="#ffffff" style=""/><path d="m240 319.761719h32v32h-32zm0 0" fill="#ffffff" data-original="#ffffff" style=""/><path d="m240 383.761719h32v32h-32zm0 0" fill="#ffffff" data-original="#ffffff" style=""/></g></g></svg>
